<svg id="visual" viewBox="0 0 960 540" width="960" height="540" xmlns="http://www.w3.org/2000/svg" xmlns:xlink="http://www.w3.org/1999/xlink" version="1.1"><rect x="0" y="0" width="960" height="540" fill="#111"></rect><path d="M0 323L26.7 312C53.3 301 106.7 279 160 276.3C213.3 273.7 266.7 290.3 320 303.7C373.3 317 426.7 327 480 321.5C533.3 316 586.7 295 640 294C693.3 293 746.7 312 800 311.5C853.3 311 906.7 291 933.3 281L960 271L960 541L933.3 541C906.7 541 853.3 541 800 541C746.7 541 693.3 541 640 541C586.7 541 533.3 541 480 541C426.7 541 373.3 541 320 541C266.7 541 213.3 541 160 541C106.7 541 53.3 541 26.7 541L0 541Z" fill="#5299c2"></path><path d="M0 384L26.7 386.3C53.3 388.7 106.7 393.3 160 390.2C213.3 387 266.7 376 320 371.7C373.3 367.3 426.7 369.7 480 369C533.3 368.3 586.7 364.7 640 367.2C693.3 369.7 746.7 378.3 800 373.5C853.3 368.7 906.7 350.3 933.3 341.2L960 332L960 541L933.3 541C906.7 541 853.3 541 800 541C746.7 541 693.3 541 640 541C586.7 541 533.3 541 480 541C426.7 541 373.3 541 320 541C266.7 541 213.3 541 160 541C106.7 541 53.3 541 26.7 541L0 541Z" fill="#2e83b1"></path><path d="M0 394L26.7 402.2C53.3 410.3 106.7 426.7 160 427.3C213.3 428 266.7 413 320 409.3C373.3 405.7 426.7 413.3 480 418.3C533.3 423.3 586.7 425.7 640 418C693.3 410.3 746.7 392.7 800 394.3C853.3 396 906.7 417 933.3 427.5L960 438L960 541L933.3 541C906.7 541 853.3 541 800 541C746.7 541 693.3 541 640 541C586.7 541 533.3 541 480 541C426.7 541 373.3 541 320 541C266.7 541 213.3 541 160 541C106.7 541 53.3 541 26.7 541L0 541Z" fill="#106d99"></path><path d="M0 483L26.7 479.8C53.3 476.7 106.7 470.3 160 462.3C213.3 454.3 266.7 444.7 320 447.5C373.3 450.3 426.7 465.7 480 470.7C533.3 475.7 586.7 470.3 640 464C693.3 457.7 746.7 450.3 800 452.3C853.3 454.3 906.7 465.7 933.3 471.3L960 477L960 541L933.3 541C906.7 541 853.3 541 800 541C746.7 541 693.3 541 640 541C586.7 541 533.3 541 480 541C426.7 541 373.3 541 320 541C266.7 541 213.3 541 160 541C106.7 541 53.3 541 26.7 541L0 541Z" fill="#0a587b"></path></svg>